<svg width="85" height="22" viewBox="0 0 85 22" fill="none" xmlns="http://www.w3.org/2000/svg">
<path d="M24.912 17.096C24.08 17.096 23.28 16.9627 22.512 16.696C21.7547 16.4187 21.168 16.0667 20.752 15.64L21.216 14.728C21.6107 15.112 22.1387 15.4373 22.8 15.704C23.472 15.96 24.176 16.088 24.912 16.088C25.616 16.088 26.1867 16.0027 26.624 15.832C27.072 15.6507 27.3973 15.4107 27.6 15.112C27.8133 14.8133 27.92 14.4827 27.92 14.12C27.92 13.6827 27.792 13.3307 27.536 13.064C27.2907 12.7973 26.9653 12.5893 26.56 12.44C26.1547 12.28 25.7067 12.1413 25.216 12.024C24.7253 11.9067 24.2347 11.784 23.744 11.656C23.2533 11.5173 22.8 11.336 22.384 11.112C21.9787 10.888 21.648 10.5947 21.392 10.232C21.1467 9.85867 21.024 9.37333 21.024 8.776C21.024 8.22133 21.168 7.71467 21.456 7.256C21.7547 6.78667 22.208 6.41333 22.816 6.136C23.424 5.848 24.2027 5.704 25.152 5.704C25.7813 5.704 26.4053 5.79467 27.024 5.976C27.6427 6.14667 28.176 6.38667 28.624 6.696L28.224 7.64C27.744 7.32 27.232 7.08533 26.688 6.936C26.1547 6.78667 25.6373 6.712 25.136 6.712C24.464 6.712 23.9093 6.80267 23.472 6.984C23.0347 7.16533 22.7093 7.41067 22.496 7.72C22.2933 8.01867 22.192 8.36 22.192 8.744C22.192 9.18133 22.3147 9.53333 22.56 9.8C22.816 10.0667 23.1467 10.2747 23.552 10.424C23.968 10.5733 24.4213 10.7067 24.912 10.824C25.4027 10.9413 25.888 11.0693 26.368 11.208C26.8587 11.3467 27.3067 11.528 27.712 11.752C28.128 11.9653 28.4587 12.2533 28.704 12.616C28.96 12.9787 29.088 13.4533 29.088 14.04C29.088 14.584 28.9387 15.0907 28.64 15.56C28.3413 16.0187 27.8827 16.392 27.264 16.68C26.656 16.9573 25.872 17.096 24.912 17.096ZM36.5318 17.096C35.6891 17.096 34.9104 16.9573 34.1958 16.68C33.4811 16.392 32.8624 15.992 32.3398 15.48C31.8171 14.968 31.4064 14.3653 31.1078 13.672C30.8198 12.9787 30.6758 12.2213 30.6758 11.4C30.6758 10.5787 30.8198 9.82133 31.1078 9.128C31.4064 8.43467 31.8171 7.832 32.3398 7.32C32.8731 6.808 33.4971 6.41333 34.2118 6.136C34.9264 5.848 35.7051 5.704 36.5478 5.704C37.3584 5.704 38.1211 5.84267 38.8358 6.12C39.5504 6.38667 40.1531 6.792 40.6438 7.336L39.8918 8.088C39.4331 7.61867 38.9264 7.28267 38.3718 7.08C37.8171 6.86667 37.2198 6.76 36.5798 6.76C35.9078 6.76 35.2838 6.87733 34.7078 7.112C34.1318 7.336 33.6304 7.66133 33.2038 8.088C32.7771 8.504 32.4411 8.99467 32.1957 9.56C31.9611 10.1147 31.8438 10.728 31.8438 11.4C31.8438 12.072 31.9611 12.6907 32.1957 13.256C32.4411 13.8107 32.7771 14.3013 33.2038 14.728C33.6304 15.144 34.1318 15.4693 34.7078 15.704C35.2838 15.928 35.9078 16.04 36.5798 16.04C37.2198 16.04 37.8171 15.9333 38.3718 15.72C38.9264 15.5067 39.4331 15.1653 39.8918 14.696L40.6438 15.448C40.1531 15.992 39.5504 16.4027 38.8358 16.68C38.1211 16.9573 37.3531 17.096 36.5318 17.096ZM41.0945 17L46.2145 5.8H47.3825L52.5025 17H51.2545L46.5505 6.488H47.0305L42.3265 17H41.0945ZM43.1105 14.008L43.4625 13.048H49.9745L50.3265 14.008H43.1105ZM54.3553 17V5.8H55.3313L63.0593 15.528H62.5473V5.8H63.7153V17H62.7393L55.0273 7.272H55.5393V17H54.3553ZM67.3709 17V5.8H71.9309C73.1255 5.8 74.1709 6.04 75.0669 6.52C75.9735 6.98933 76.6775 7.64533 77.1789 8.488C77.6802 9.33067 77.9309 10.3013 77.9309 11.4C77.9309 12.4987 77.6802 13.4693 77.1789 14.312C76.6775 15.1547 75.9735 15.816 75.0669 16.296C74.1709 16.7653 73.1255 17 71.9309 17H67.3709ZM68.5549 15.976H71.8669C72.8589 15.976 73.7175 15.784 74.4429 15.4C75.1789 15.0053 75.7495 14.4667 76.1549 13.784C76.5602 13.0907 76.7629 12.296 76.7629 11.4C76.7629 10.4933 76.5602 9.69867 76.1549 9.016C75.7495 8.33333 75.1789 7.8 74.4429 7.416C73.7175 7.02133 72.8589 6.824 71.8669 6.824H68.5549V15.976ZM80.5896 17V5.8H81.7736V17H80.5896Z" fill="#533738"/>
<path fill-rule="evenodd" clip-rule="evenodd" d="M4.10408 0.0194457C2.40503 0.0926541 0.109041 0.295779 0.0206069 0.380737C-0.0496251 0.448237 0.0763528 8.15561 0.148865 8.2272C0.197855 8.27553 1.21485 8.35428 3.13274 8.4582C5.06072 8.5627 11.5831 8.50707 12.012 8.38245C12.0525 8.37065 12.0945 8.32007 12.1052 8.27003C12.1335 8.13707 12.2113 0.453154 12.1849 0.385404C12.1727 0.353862 12.1311 0.318696 12.0926 0.307196C11.9035 0.250862 10.0694 0.101321 8.72849 0.0329041C8.02102 -0.00313752 4.84381 -0.0124293 4.10408 0.0194457ZM8.03166 0.242779C9.98646 0.313571 11.9114 0.470404 11.947 0.561779C11.9779 0.641321 11.8881 8.11732 11.8558 8.1492C11.8131 8.19132 10.6811 8.23849 8.80595 8.27615C6.84266 8.31565 4.12211 8.27499 2.45702 8.18128C0.490059 8.07061 0.384986 8.0627 0.360364 8.0234C0.339037 7.98936 0.224841 2.28365 0.220407 1.0297L0.218718 0.546988L0.74379 0.496737C3.47368 0.235612 5.69513 0.158196 8.03166 0.242779ZM6.0767 8.6009C6.06023 8.61715 6.0468 8.80078 6.0468 9.00895L6.04684 9.3874L5.25494 9.35911C4.8194 9.34357 4.42981 9.34011 4.38914 9.35149C4.34514 9.36382 4.31524 9.41261 4.31524 9.47207C4.31524 9.52699 4.72383 10.8317 5.22323 12.3714C5.72262 13.9111 6.13122 15.2307 6.13122 15.3037C6.13122 15.3767 5.72262 16.7511 5.22323 18.3579C4.72383 19.9647 4.31524 21.325 4.31524 21.3809C4.31524 21.4369 4.33901 21.4917 4.36811 21.5027C4.39717 21.5137 5.25714 21.4109 6.27912 21.2744C7.65352 21.0907 8.15017 21.0097 8.18687 20.9634C8.22504 20.9153 8.22403 20.8608 8.18248 20.7274C8.15274 20.6321 7.74411 19.3714 7.27436 17.9258L6.4203 15.2975L7.30603 12.4467C7.92021 10.4697 8.18045 9.57482 8.15498 9.52749C8.12348 9.46899 7.98791 9.45482 7.21063 9.4287L6.3031 9.39815L6.29107 8.99695C6.28004 8.62936 6.27181 8.59474 6.19284 8.58357C6.14541 8.57686 6.09317 8.58469 6.0767 8.6009ZM6.05195 9.65236C6.06639 9.66707 6.09046 10.7278 6.10546 12.0097C6.12045 13.2915 6.12484 14.3321 6.11525 14.3222C6.10563 14.3122 5.76046 13.2634 5.34823 11.9916C4.93596 10.7197 4.58911 9.65365 4.57741 9.62261C4.5598 9.57574 4.68122 9.5712 5.29092 9.5959C5.695 9.61228 6.03746 9.63765 6.05195 9.65236ZM7.68646 9.68332C7.83224 9.69844 7.90514 9.72382 7.89373 9.75536C7.88402 9.78215 7.54523 10.8728 7.1409 12.1791L6.40573 14.5541L6.37857 14.1166C6.36362 13.8759 6.34065 12.7692 6.32747 11.6571L6.30357 9.63511L6.88257 9.64753C7.201 9.65436 7.56276 9.67044 7.68646 9.68332ZM7.18656 18.4221C7.60884 19.7245 7.948 20.7958 7.94023 20.8028C7.92186 20.8193 6.65954 20.9916 6.55688 20.9916C6.4836 20.9916 6.47685 20.9311 6.45374 20.0645C6.41814 18.7287 6.38372 16.0184 6.40264 16.0377C6.41147 16.0467 6.76424 17.1197 7.18656 18.4221ZM6.20483 20.5317L6.19457 21.0509L5.49774 21.1459C5.11448 21.1982 4.75149 21.2364 4.69106 21.2308L4.58121 21.2207L5.31373 18.8666C5.71658 17.5718 6.06947 16.4374 6.0979 16.3457C6.14135 16.2058 6.15487 16.4863 6.18236 18.0957C6.20035 19.1499 6.21049 20.2461 6.20483 20.5317Z" fill="black"/>
</svg>
